<?xml version="1.0" encoding="UTF-8" standalone="no" ?>
<!DOCTYPE svg PUBLIC "-//W3C//DTD SVG 1.1//EN" "http://www.w3.org/Graphics/SVG/1.1/DTD/svg11.dtd">
<svg xmlns="http://www.w3.org/2000/svg" xmlns:xlink="http://www.w3.org/1999/xlink" version="1.1" width="136" height="203" viewBox="0 0 136 203" xml:space="preserve">
<desc>Created with Fabric.js 5.3.0</desc>
<defs>
</defs>
<g transform="matrix(0.9476152303 0 0 0.8560311231 67.3030675288 102.7997089636)" id="clIetmyA15rG2_MbS6oMD"  >
<path style="stroke: rgb(255,255,255); stroke-width: 1; stroke-dasharray: none; stroke-linecap: butt; stroke-dashoffset: 0; stroke-linejoin: miter; stroke-miterlimit: 4; fill: rgb(255,255,255); fill-rule: nonzero; opacity: 1;"  transform=" translate(0, 0)" d="M -70.3724 -70.3724 L 70.3724 -70.3724 L 70.3724 70.3724 L -70.3724 70.3724 z" stroke-linecap="round" />
</g>
<g transform="matrix(2.4086918432 0 0 1.2654419354 67.1597722308 163.4686870233)" id="AiKjY7p4zGlvb07bEaEax"  >
<path style="stroke: rgb(255,255,255); stroke-width: 1; stroke-dasharray: none; stroke-linecap: butt; stroke-dashoffset: 0; stroke-linejoin: miter; stroke-miterlimit: 4; fill: rgb(255,255,255); fill-rule: nonzero; opacity: 1;"  transform=" translate(0, 0)" d="M 0 -27.38226 C 15.11501 -27.38226 27.38226 -15.115009999999998 27.38226 0 C 27.38226 15.11501 15.115009999999998 27.38226 0 27.38226 C -15.11501 27.38226 -27.38226 15.115009999999998 -27.38226 0 C -27.38226 -15.11501 -15.115009999999998 -27.38226 0 -27.38226 z" stroke-linecap="round" />
</g>
<g transform="matrix(1.6582657608 0 0 0.3579432181 67.3030675288 28.0620461323)" id="AMlUCQrPcyNRhtWStwl5n"  >
<path style="stroke: rgb(255,255,255); stroke-width: 1; stroke-dasharray: none; stroke-linecap: butt; stroke-dashoffset: 0; stroke-linejoin: miter; stroke-miterlimit: 4; fill: rgb(255,255,255); fill-rule: nonzero; opacity: 1;"  transform=" translate(-40, -40)" d="M 60 40 L 80 80 L 40 80 L 0 80 L 20 40 L 40 0 L 60 40 z" stroke-linecap="round" />
</g>
<g transform="matrix(0.8744233477 0 0 0.7485336004 67.2598526266 98.5939529533)" id="svc5StXSX3CbVzB0eabCD"  >
<path style="stroke: rgb(0,0,0); stroke-width: 1; stroke-dasharray: none; stroke-linecap: butt; stroke-dashoffset: 0; stroke-linejoin: miter; stroke-miterlimit: 4; fill: rgb(0,0,0); fill-rule: nonzero; opacity: 1;"  transform=" translate(0, 0)" d="M -70.3724 -70.3724 L 70.3724 -70.3724 L 70.3724 70.3724 L -70.3724 70.3724 z" stroke-linecap="round" />
</g>
<g transform="matrix(2.2226493601 0 0 1.6133110513 67.2598526266 149.9581080288)" id="LrO-3HJASqG808CBFFMB7"  >
<path style="stroke: rgb(0,0,0); stroke-width: 1; stroke-dasharray: none; stroke-linecap: butt; stroke-dashoffset: 0; stroke-linejoin: miter; stroke-miterlimit: 4; fill: rgb(0,0,0); fill-rule: nonzero; opacity: 1;"  transform=" translate(0, 0)" d="M 0 -27.38226 C 15.11501 -27.38226 27.38226 -15.115009999999998 27.38226 0 C 27.38226 15.11501 15.115009999999998 27.38226 0 27.38226 C -15.11501 27.38226 -27.38226 15.115009999999998 -27.38226 0 C -27.38226 -15.11501 -15.115009999999998 -27.38226 0 -27.38226 z" stroke-linecap="round" />
</g>
<g transform="matrix(1.5193893434 0 0 0.3129939071 67.4254165033 33.2415956199)" id="TvQBvOUIkTncuXlKfbpwn"  >
<path style="stroke: rgb(0,0,0); stroke-width: 1; stroke-dasharray: none; stroke-linecap: butt; stroke-dashoffset: 0; stroke-linejoin: miter; stroke-miterlimit: 4; fill: rgb(0,0,0); fill-rule: nonzero; opacity: 1;"  transform=" translate(-40, -40)" d="M 60 40 L 80 80 L 40 80 L 0 80 L 20 40 L 40 0 L 60 40 z" stroke-linecap="round" />
</g>
<g transform="matrix(0.8291236937 0 0 0.7360655485 67.1597722308 102.7380621469)" id="KnErJdz-xK4Q6Q3hOFxLw"  >
<path style="stroke: rgb(255,255,255); stroke-width: 0; stroke-dasharray: none; stroke-linecap: butt; stroke-dashoffset: 0; stroke-linejoin: miter; stroke-miterlimit: 4; fill: rgb(255,255,255); fill-rule: nonzero; opacity: 1;"  transform=" translate(0, 0)" d="M -70.3724 -70.3724 L 70.3724 -70.3724 L 70.3724 70.3724 L -70.3724 70.3724 z" stroke-linecap="round" />
</g>
<g transform="matrix(2.1075046223 0 0 1.5297331909 67.1597722308 153.2927762627)" id="rS2jWO4d52-O2THYJ43fR"  >
<path style="stroke: rgb(255,255,255); stroke-width: 1; stroke-dasharray: none; stroke-linecap: butt; stroke-dashoffset: 0; stroke-linejoin: miter; stroke-miterlimit: 4; fill: rgb(255,255,255); fill-rule: nonzero; opacity: 1;"  transform=" translate(0, 0)" d="M 0 -27.38226 C 15.11501 -27.38226 27.38226 -15.115009999999998 27.38226 0 C 27.38226 15.11501 15.115009999999998 27.38226 0 27.38226 C -15.11501 27.38226 -27.38226 15.115009999999998 -27.38226 0 C -27.38226 -15.11501 -15.115009999999998 -27.38226 0 -27.38226 z" stroke-linecap="round" />
</g>
<g transform="matrix(1.4423419401 0 0 0.3104021837 67.4487101294 39.6123901992)" id="KNIqJi4ntASyzGBL_u-5p"  >
<path style="stroke: rgb(255,255,255); stroke-width: 0; stroke-dasharray: none; stroke-linecap: butt; stroke-dashoffset: 0; stroke-linejoin: miter; stroke-miterlimit: 4; fill: rgb(255,255,255); fill-rule: nonzero; opacity: 1;"  transform=" translate(-40, -40)" d="M 60 40 L 80 80 L 40 80 L 0 80 L 20 40 L 40 0 L 60 40 z" stroke-linecap="round" />
</g>
<g transform="matrix(1.1872887017 0 0 1.1872887017 67.0238021434 23.2742101152)" id="sQ4L6JdKF1O1pCE7qOUP4"  >
<path style="stroke: rgb(0,0,0); stroke-width: 5; stroke-dasharray: none; stroke-linecap: butt; stroke-dashoffset: 0; stroke-linejoin: miter; stroke-miterlimit: 4; fill: rgb(255,255,255); fill-rule: nonzero; opacity: 1;"  transform=" translate(0, 0)" d="M 0 -15.97444 C 8.81789 -15.97444 15.97444 -8.817889999999998 15.97444 0 C 15.97444 8.81789 8.817889999999998 15.97444 0 15.97444 C -8.81789 15.97444 -15.97444 8.817889999999998 -15.97444 0 C -15.97444 -8.81789 -8.817889999999998 -15.97444 0 -15.97444 z" stroke-linecap="round" />
</g>
<g transform="matrix(0.6395759744 0 0 0.6395759744 66.8765916894 23.2742101152)" id="cJTyQZoc0z8eyIm-2G63Z"  >
<path style="stroke: rgb(0,0,0); stroke-width: 0; stroke-dasharray: none; stroke-linecap: butt; stroke-dashoffset: 0; stroke-linejoin: miter; stroke-miterlimit: 4; fill: rgb(0,0,0); fill-rule: nonzero; opacity: 1;"  transform=" translate(-15.1926, -14.449015)" d="M 15.1926 0 L 19.69958 9.77112 L 30.3852 11.03807 L 22.48505 18.343899999999998 L 24.582140000000003 28.89803 L 15.192600000000002 23.64217 L 5.803060000000002 28.89803 L 7.900150000000002 18.343899999999998 L 1.7763568394002505e-15 11.038069999999998 L 10.685620000000002 9.771119999999998 z" stroke-linecap="round" />
</g>
<g transform="matrix(0.4108295084 0 0 0.4108295084 67.8445059767 120.2542299605)" id="EnAs0Vf6j0S4IEs5wleNE"  >
<g style=""   >
		<g transform="matrix(3.7795275591 0 0 3.7795275591 -25.6486662484 26.1869809935)" id="-N7ow97U70_EDZGcKN1Rp"  >
<path style="stroke: none; stroke-width: 0.962001; stroke-dasharray: none; stroke-linecap: butt; stroke-dashoffset: 0; stroke-linejoin: miter; stroke-miterlimit: 4; fill: rgb(5,1,25); fill-rule: nonzero; opacity: 1;"  transform=" translate(-20.8627470551, -50.5848887212)" d="M 40.133 85.304 C 41.447 84.97200000000001 40.623000000000005 83.572 40.081 81.691 C 38.949000000000005 77.757 35.948 66.642 34.692 66.634 C 34.111 66.63 33.049 69.483 32.032 72.324 C 31.014999999999997 75.164 30.041999999999998 77.994 29.496999999999996 77.989 C 28.326999999999998 77.979 26.115999999999996 66.066 23.956999999999997 54.910000000000004 C 21.875999999999998 44.159000000000006 19.519999999999996 31.753000000000004 18.525 31.767000000000003 C 16.912999999999997 31.791000000000004 12.536999999999999 61.249 10.808999999999997 61.2 C 10.380999999999997 61.188 9.626999999999997 58.724000000000004 8.838999999999997 55.092000000000006 C 8.051999999999996 51.46000000000001 7.2289999999999965 46.659000000000006 6.382999999999997 41.97200000000001 C 6.022999999999997 39.982000000000006 4.548999999999998 31.107000000000006 3.9029999999999974 27.152000000000008 C 3.2559999999999976 23.19600000000001 3.3899999999999975 24.16100000000001 3.0199999999999974 21.87600000000001 C 2.6489999999999974 19.58300000000001 2.0999999999999974 16.76900000000001 1.8139999999999974 15.462000000000009 C 1.5319999999999974 14.173000000000009 1.3189999999999973 14.40900000000001 1.2339999999999973 14.71400000000001 C 1.1569999999999974 14.99500000000001 1.1599999999999973 15.40600000000001 1.1289999999999973 18.774000000000008 C 1.0989999999999973 22.14100000000001 1.0349999999999973 28.47800000000001 1.0109999999999975 33.66600000000001 C 0.963 44.042 0.887 56.795 0.887 66 L 0.981 74.78 C 2.678 81.108 10.389 84.373 18.449 85.882 C 26.742 87.433 35.399 86.49900000000001 40.133 85.304 z" stroke-linecap="round" />
</g>
		<g transform="matrix(3.7795275591 0 0 3.7795275591 51.0721216433 -10.1355400171)" id="1FWu2l3WkEUncwteXdb3F"  >
<path style="stroke: none; stroke-width: 0.962001; stroke-dasharray: none; stroke-linecap: butt; stroke-dashoffset: 0; stroke-linejoin: miter; stroke-miterlimit: 4; fill: rgb(5,1,25); fill-rule: nonzero; opacity: 1;"  transform=" translate(-41.1617888515, -40.9745550371)" d="M 27.422 60.766 C 43.572 60.778999999999996 50.302 66.616 50.207 66.472 L 50.212 80.30799999999999 C 50.577000000000005 80.89699999999999 50.962 80.61999999999999 51.341 80.28099999999999 C 51.724000000000004 79.937 52.135 79.58699999999999 52.444 79.24699999999999 C 53.055 78.57499999999999 53.252 78.30199999999999 53.674 77.58399999999999 C 54.626 75.96399999999998 54.785 74.92699999999999 54.903 73.61599999999999 C 54.903 73.61599999999999 54.851 45.98999999999998 54.836999999999996 27.753999999999984 C 54.83 18.636999999999983 54.766999999999996 9.413999999999984 54.733 5.179999999999982 C 54.715999999999994 3.062999999999982 54.683 2.179999999999982 54.635 1.7699999999999818 C 54.582 1.3249999999999817 54.501999999999995 1.2189999999999817 54.388 1.3499999999999819 C 53.89 1.9279999999999817 53.175999999999995 6.852999999999982 52.265 12.141999999999982 C 51.35 17.453999999999983 50.613 21.92299999999998 49.664 27.33199999999998 C 48.726 32.67799999999998 47.859 36.375999999999976 47.38 36.38199999999998 C 45.934000000000005 36.39999999999998 43.343 19.794999999999977 42.204 19.744999999999976 C 41.841 19.728999999999978 41.282000000000004 21.535999999999976 40.726 24.205999999999975 C 40.171 26.875999999999976 39.576 30.413999999999973 39.013999999999996 33.97599999999997 C 37.907 41.00999999999997 36.620999999999995 48.26999999999997 35.821 48.11599999999997 C 34.580999999999996 47.87799999999997 32.911 35.77399999999997 31.805999999999997 37.47899999999997 C 31.226999999999997 38.37199999999997 30.535999999999998 41.16299999999997 29.568999999999996 46.74899999999997 C 28.599999999999994 52.34899999999997 27.372999999999994 60.78399999999996 27.421999999999997 60.76599999999996 Z" stroke-linecap="round" />
</g>
</g>
</g>
<g transform="matrix(0.2674506329 0 0 0.2674506329 37.1597722308 55.7206355701)" id="cYF-NlJvNU4CJt4eeFdEY"  >
<path style="stroke: rgb(0,0,0); stroke-width: 0; stroke-dasharray: none; stroke-linecap: butt; stroke-dashoffset: 0; stroke-linejoin: miter; stroke-miterlimit: 4; fill: rgb(0,0,0); fill-rule: nonzero; opacity: 1;"  transform=" translate(-15.1926, -14.449015)" d="M 15.1926 0 L 19.69958 9.77112 L 30.3852 11.03807 L 22.48505 18.343899999999998 L 24.582140000000003 28.89803 L 15.192600000000002 23.64217 L 5.803060000000002 28.89803 L 7.900150000000002 18.343899999999998 L 1.7763568394002505e-15 11.038069999999998 L 10.685620000000002 9.771119999999998 z" stroke-linecap="round" />
</g>
<g transform="matrix(0.2674506329 0 0 0.2674506329 50.0598616009 67.1386083217)" id="xjK86p0-VgBPH79JFl3yh"  >
<path style="stroke: rgb(0,0,0); stroke-width: 0; stroke-dasharray: none; stroke-linecap: butt; stroke-dashoffset: 0; stroke-linejoin: miter; stroke-miterlimit: 4; fill: rgb(0,0,0); fill-rule: nonzero; opacity: 1;"  transform=" translate(-15.1926, -14.449015)" d="M 15.1926 0 L 19.69958 9.77112 L 30.3852 11.03807 L 22.48505 18.343899999999998 L 24.582140000000003 28.89803 L 15.192600000000002 23.64217 L 5.803060000000002 28.89803 L 7.900150000000002 18.343899999999998 L 1.7763568394002505e-15 11.038069999999998 L 10.685620000000002 9.771119999999998 z" stroke-linecap="round" />
</g>
<g transform="matrix(0.2674506329 0 0 0.2674506329 97.1597722308 55.4604453896)" id="1LrTAevgMcfDh6WV4W0X4"  >
<path style="stroke: rgb(0,0,0); stroke-width: 0; stroke-dasharray: none; stroke-linecap: butt; stroke-dashoffset: 0; stroke-linejoin: miter; stroke-miterlimit: 4; fill: rgb(0,0,0); fill-rule: nonzero; opacity: 1;"  transform=" translate(-15.1926, -14.449015)" d="M 15.1926 0 L 19.69958 9.77112 L 30.3852 11.03807 L 22.48505 18.343899999999998 L 24.582140000000003 28.89803 L 15.192600000000002 23.64217 L 5.803060000000002 28.89803 L 7.900150000000002 18.343899999999998 L 1.7763568394002505e-15 11.038069999999998 L 10.685620000000002 9.771119999999998 z" stroke-linecap="round" />
</g>
<g transform="matrix(0.2674506329 0 0 0.2674506329 84.3562019851 67.1386083217)" id="GuRqKB8lf3mFsUqrekH5V"  >
<path style="stroke: rgb(0,0,0); stroke-width: 0; stroke-dasharray: none; stroke-linecap: butt; stroke-dashoffset: 0; stroke-linejoin: miter; stroke-miterlimit: 4; fill: rgb(0,0,0); fill-rule: nonzero; opacity: 1;"  transform=" translate(-15.1926, -14.449015)" d="M 15.1926 0 L 19.69958 9.77112 L 30.3852 11.03807 L 22.48505 18.343899999999998 L 24.582140000000003 28.89803 L 15.192600000000002 23.64217 L 5.803060000000002 28.89803 L 7.900150000000002 18.343899999999998 L 1.7763568394002505e-15 11.038069999999998 L 10.685620000000002 9.771119999999998 z" stroke-linecap="round" />
</g>
<g transform="matrix(0.2674506329 0 0 0.2674506329 67.2557839213 79.4098119087)" id="NUjYlHnXpeqPEOoQg08JY"  >
<path style="stroke: rgb(0,0,0); stroke-width: 0; stroke-dasharray: none; stroke-linecap: butt; stroke-dashoffset: 0; stroke-linejoin: miter; stroke-miterlimit: 4; fill: rgb(0,0,0); fill-rule: nonzero; opacity: 1;"  transform=" translate(-15.1926, -14.449015)" d="M 15.1926 0 L 19.69958 9.77112 L 30.3852 11.03807 L 22.48505 18.343899999999998 L 24.582140000000003 28.89803 L 15.192600000000002 23.64217 L 5.803060000000002 28.89803 L 7.900150000000002 18.343899999999998 L 1.7763568394002505e-15 11.038069999999998 L 10.685620000000002 9.771119999999998 z" stroke-linecap="round" />
</g>
</svg>